<svg xmlns="http://www.w3.org/2000/svg" width="79" height="81" viewBox="0 0 79 81">
  <g id="Instagram" transform="translate(-0.191)">
    <ellipse id="fond_insta" data-name="fond insta" cx="39.5" cy="40.5" rx="39.5" ry="40.5" transform="translate(0.191)" fill="#153053"/>
    <g id="logo_insta" data-name="logo insta" transform="translate(14.783 15.635)">
      <path id="Tracé_1480" data-name="Tracé 1480" d="M49.753,14.535a18.064,18.064,0,0,0-1.149-6A12.664,12.664,0,0,0,41.37,1.3a18.111,18.111,0,0,0-6-1.149C32.726.029,31.886,0,25.173,0S17.621.029,14.984.145a18.07,18.07,0,0,0-6,1.149A12.063,12.063,0,0,0,4.6,4.153,12.172,12.172,0,0,0,1.753,8.528a18.113,18.113,0,0,0-1.149,6c-.126,2.646-.155,3.487-.155,10.2s.029,7.552.145,10.189a18.064,18.064,0,0,0,1.15,6,12.662,12.662,0,0,0,7.234,7.234,18.114,18.114,0,0,0,6,1.149c2.636.116,3.477.145,10.189.145s7.552-.029,10.189-.145a18.06,18.06,0,0,0,6-1.149,12.645,12.645,0,0,0,7.234-7.234,18.125,18.125,0,0,0,1.149-6c.116-2.637.145-3.477.145-10.189S49.868,17.172,49.753,14.535ZM45.3,34.72a13.551,13.551,0,0,1-.85,4.587A8.2,8.2,0,0,1,39.757,44a13.6,13.6,0,0,1-4.587.85c-2.608.116-3.39.145-9.986.145s-7.388-.029-9.986-.145A13.544,13.544,0,0,1,10.609,44,7.607,7.607,0,0,1,7.77,42.156a7.686,7.686,0,0,1-1.845-2.839,13.6,13.6,0,0,1-.85-4.587c-.116-2.608-.145-3.39-.145-9.986s.029-7.388.145-9.986a13.544,13.544,0,0,1,.85-4.587A7.514,7.514,0,0,1,7.78,7.33a7.674,7.674,0,0,1,2.839-1.844,13.608,13.608,0,0,1,4.587-.85c2.608-.116,3.39-.145,9.986-.145s7.388.029,9.986.145a13.551,13.551,0,0,1,4.587.85A7.6,7.6,0,0,1,42.606,7.33a7.685,7.685,0,0,1,1.845,2.84,13.606,13.606,0,0,1,.85,4.587c.116,2.608.145,3.39.145,9.986S45.416,32.112,45.3,34.72Zm0,0" transform="translate(-0.449 0)" fill="#fbfbfb"/>
      <path id="Tracé_1481" data-name="Tracé 1481" d="M137.649,124.5a12.7,12.7,0,1,0,12.7,12.7A12.7,12.7,0,0,0,137.649,124.5Zm0,20.938a8.238,8.238,0,1,1,8.238-8.238A8.24,8.24,0,0,1,137.649,145.438Zm0,0" transform="translate(-112.925 -112.476)" fill="#fbfbfb"/>
      <path id="Tracé_1482" data-name="Tracé 1482" d="M368.379,91.566a2.965,2.965,0,1,1-2.965-2.965A2.965,2.965,0,0,1,368.379,91.566Zm0,0" transform="translate(-327.488 -80.045)" fill="#fbfbfb"/>
    </g>
  </g>
</svg>
