<svg xmlns="http://www.w3.org/2000/svg" width="90.978" height="85.909" viewBox="0 0 90.978 85.909">
  <g id="Tracé_1" data-name="Tracé 1" fill="none" stroke-miterlimit="10">
    <path d="M55.082,3.421H87.794V43.008a37.512,37.512,0,0,1-3.325,15.459A39.743,39.743,0,0,1,75.4,71.092,42.625,42.625,0,0,1,61.956,79.6a45,45,0,0,1-32.934,0,42.625,42.625,0,0,1-13.447-8.511A39.743,39.743,0,0,1,6.509,58.467a37.6,37.6,0,0,1-.3-30.243,39.492,39.492,0,0,1,8.3-12.261,42.363,42.363,0,0,1,12.4-8.636A44.223,44.223,0,0,1,42.227,3.421V43.073" stroke="none"/>
    <path d="M 45.48918914794922 85.90858459472656 C 39.21848297119141 85.90858459472656 33.24005889892578 84.70577239990234 27.7996940612793 82.53193664550781 C 22.35932922363281 80.35809326171875 17.45702171325684 77.21323394775391 13.33855152130127 73.32913970947266 C 9.220081329345703 69.44504547119141 5.885448932647705 64.82171630859375 3.580434083938599 59.69095611572266 C 1.275419592857361 54.56019592285156 2.234394196420908e-05 48.92200088500977 2.234394196420908e-05 43.00815582275391 C 2.234394196420908e-05 37.43523025512695 1.153048157691956 32.08153915405273 3.250573635101318 27.15939712524414 C 5.348099231719971 22.23725318908691 8.390124320983887 17.74666023254395 12.16812324523926 13.89993381500244 C 15.94612312316895 10.05320835113525 20.46009635925293 6.850349903106689 25.50151824951172 4.503678798675537 C 30.54294013977051 2.157007932662964 36.11180877685547 0.666523277759552 41.99960327148438 0.2445444762706757 L 45.41183090209961 -3.904766799678328e-06 L 45.41183090209961 3.420980453491211 L 45.41183090209961 43.07285308837891 L 39.04269409179688 43.07285308837891 L 39.04269409179688 6.984514236450195 C 34.39850616455078 7.708089351654053 30.03431701660156 9.203420639038086 26.10038757324219 11.31889152526855 C 22.16645812988281 13.43436145782471 18.66279029846191 16.16996955871582 15.73964595794678 19.37409782409668 C 12.81650066375732 22.57822608947754 10.47387886047363 26.25087547302246 8.862043380737305 30.24042129516602 C 7.250207424163818 34.22997283935547 6.369158744812012 38.53642272949219 6.369158744812012 43.00815582275391 C 6.369158744812012 48.04401016235352 7.465981483459473 52.84514617919922 9.448260307312012 57.21417617797852 C 11.43054008483887 61.58320999145508 14.2982759475708 65.5201416015625 17.84010124206543 68.82759094238281 C 21.38192558288574 72.13503265380859 25.59784126281738 74.81300354003906 30.2764778137207 76.66410827636719 C 34.95511245727539 78.51520538330078 40.09647369384766 79.53945159912109 45.48918914794922 79.53945159912109 C 50.88189315795898 79.53945159912109 56.02324676513672 78.51520538330078 60.70186996459961 76.66410827636719 C 65.38050079345703 74.81300354003906 69.59641265869141 72.13503265380859 73.13822174072266 68.82759094238281 C 76.68003845214844 65.5201416015625 79.54776763916016 61.58320999145508 81.53004455566406 57.21417617797852 C 83.51231384277344 52.84514617919922 84.60914611816406 48.04401016235352 84.60914611816406 43.00815582275391 L 84.60914611816406 6.60554838180542 L 55.08213043212891 6.60554838180542 L 55.08213043212891 0.2364123612642288 L 87.79370880126953 0.2364123612642288 L 90.97827911376953 0.2364123612642288 L 90.97827911376953 3.420980453491211 L 90.97827911376953 43.00815582275391 C 90.97827911376953 48.92200088500977 89.702880859375 54.56019592285156 87.39787292480469 59.69095611572266 C 85.09286499023438 64.82171630859375 81.75823211669922 69.44504547119141 77.6397705078125 73.32913970947266 C 73.52130889892578 77.21323394775391 68.61901092529297 80.35809326171875 63.17865371704102 82.53193664550781 C 57.73829650878906 84.70577239990234 51.75988006591797 85.90858459472656 45.48918914794922 85.90858459472656 Z" stroke="none" fill="#1b3050"/>
  </g>
</svg>
