<svg xmlns="http://www.w3.org/2000/svg" width="81" height="81" viewBox="0 0 81 81">
  <g id="Twitter" transform="translate(0)">
    <circle id="fond_twitter" data-name="fond twitter" cx="40.5" cy="40.5" r="40.5" transform="translate(0)" fill="#153053"/>
    <g id="logo_twitter" data-name="logo twitter" transform="translate(16.526 20.863)">
      <g id="Groupe_264" data-name="Groupe 264" transform="translate(0 0)">
        <path id="Tracé_1479" data-name="Tracé 1479" d="M47.978,52.615a20.507,20.507,0,0,1-5.667,1.553,9.781,9.781,0,0,0,4.327-5.436A19.657,19.657,0,0,1,40.4,51.113a9.835,9.835,0,0,0-17.014,6.726,10.128,10.128,0,0,0,.228,2.243A27.841,27.841,0,0,1,3.34,49.793,9.838,9.838,0,0,0,6.363,62.939a9.714,9.714,0,0,1-4.444-1.211v.108A9.881,9.881,0,0,0,9.8,71.5a9.817,9.817,0,0,1-2.579.324,8.7,8.7,0,0,1-1.862-.168,9.93,9.93,0,0,0,9.191,6.852,19.764,19.764,0,0,1-12.2,4.2A18.422,18.422,0,0,1,0,82.568a27.691,27.691,0,0,0,15.089,4.414c18.1,0,28-14.993,28-27.989,0-.435-.015-.855-.036-1.271A19.622,19.622,0,0,0,47.978,52.615Z" transform="translate(0 -48)" fill="#fafbfb"/>
      </g>
    </g>
  </g>
</svg>
